<svg width="104" height="21" viewBox="0 0 104 21" fill="none" xmlns="http://www.w3.org/2000/svg">
<path d="M13.04 7.95C13.04 8.88333 12.815 9.75833 12.365 10.575C11.9316 11.3917 11.24 12.05 10.29 12.55C9.35663 13.05 8.1733 13.3 6.73997 13.3H3.81497V20H0.314966V2.55H6.73997C8.08997 2.55 9.23997 2.78333 10.19 3.25C11.14 3.71667 11.8483 4.35833 12.315 5.175C12.7983 5.99167 13.04 6.91667 13.04 7.95ZM6.58997 10.475C7.55663 10.475 8.2733 10.2583 8.73997 9.825C9.20663 9.375 9.43997 8.75 9.43997 7.95C9.43997 6.25 8.48997 5.4 6.58997 5.4H3.81497V10.475H6.58997ZM21.6749 20.225C20.3416 20.225 19.1416 19.9333 18.0749 19.35C17.0083 18.75 16.1666 17.9083 15.5499 16.825C14.9499 15.7417 14.6499 14.4917 14.6499 13.075C14.6499 11.6583 14.9583 10.4083 15.5749 9.325C16.2083 8.24167 17.0666 7.40833 18.1499 6.825C19.2333 6.225 20.4416 5.925 21.7749 5.925C23.1083 5.925 24.3166 6.225 25.3999 6.825C26.4833 7.40833 27.3333 8.24167 27.9499 9.325C28.5833 10.4083 28.8999 11.6583 28.8999 13.075C28.8999 14.4917 28.5749 15.7417 27.9249 16.825C27.2916 17.9083 26.4249 18.75 25.3249 19.35C24.2416 19.9333 23.0249 20.225 21.6749 20.225ZM21.6749 17.175C22.3083 17.175 22.8999 17.025 23.4499 16.725C24.0166 16.4083 24.4666 15.9417 24.7999 15.325C25.1333 14.7083 25.2999 13.9583 25.2999 13.075C25.2999 11.7583 24.9499 10.75 24.2499 10.05C23.5666 9.33333 22.7249 8.975 21.7249 8.975C20.7249 8.975 19.8833 9.33333 19.1999 10.05C18.5333 10.75 18.1999 11.7583 18.1999 13.075C18.1999 14.3917 18.5249 15.4083 19.1749 16.125C19.8416 16.825 20.6749 17.175 21.6749 17.175ZM34.9673 8.3C35.4173 7.56667 36.0006 6.99167 36.7173 6.575C37.4506 6.15833 38.284 5.95 39.2173 5.95V9.625H38.2923C37.1923 9.625 36.359 9.88333 35.7923 10.4C35.2423 10.9167 34.9673 11.8167 34.9673 13.1V20H31.4673V6.15H34.9673V8.3ZM45.6497 9.025V15.725C45.6497 16.1917 45.7581 16.5333 45.9747 16.75C46.2081 16.95 46.5914 17.05 47.1247 17.05H48.7497V20H46.5497C43.5997 20 42.1247 18.5667 42.1247 15.7V9.025H40.4747V6.15H42.1247V2.725H45.6497V6.15H48.7497V9.025H45.6497ZM57.6171 9.025H55.1921V20H51.6421V9.025H50.0671V6.15H51.6421V5.45C51.6421 3.75 52.1254 2.5 53.0921 1.7C54.0588 0.899999 55.5171 0.524999 57.4671 0.575V3.525C56.6171 3.50833 56.0254 3.65 55.6921 3.95C55.3588 4.25 55.1921 4.79167 55.1921 5.575V6.15H57.6171V9.025ZM66.0353 20.225C64.7019 20.225 63.5019 19.9333 62.4353 19.35C61.3686 18.75 60.5269 17.9083 59.9103 16.825C59.3103 15.7417 59.0103 14.4917 59.0103 13.075C59.0103 11.6583 59.3186 10.4083 59.9353 9.325C60.5686 8.24167 61.4269 7.40833 62.5103 6.825C63.5936 6.225 64.8019 5.925 66.1353 5.925C67.4686 5.925 68.6769 6.225 69.7603 6.825C70.8436 7.40833 71.6936 8.24167 72.3103 9.325C72.9436 10.4083 73.2603 11.6583 73.2603 13.075C73.2603 14.4917 72.9353 15.7417 72.2853 16.825C71.6519 17.9083 70.7853 18.75 69.6853 19.35C68.6019 19.9333 67.3853 20.225 66.0353 20.225ZM66.0353 17.175C66.6686 17.175 67.2603 17.025 67.8103 16.725C68.3769 16.4083 68.8269 15.9417 69.1603 15.325C69.4936 14.7083 69.6603 13.9583 69.6603 13.075C69.6603 11.7583 69.3103 10.75 68.6103 10.05C67.9269 9.33333 67.0853 8.975 66.0853 8.975C65.0853 8.975 64.2436 9.33333 63.5603 10.05C62.8936 10.75 62.5603 11.7583 62.5603 13.075C62.5603 14.3917 62.8853 15.4083 63.5353 16.125C64.2019 16.825 65.0353 17.175 66.0353 17.175ZM79.3277 1.5V20H75.8277V1.5H79.3277ZM84.5607 4.5C83.944 4.5 83.4273 4.30833 83.0107 3.925C82.6107 3.525 82.4107 3.03333 82.4107 2.45C82.4107 1.86667 82.6107 1.38333 83.0107 0.999999C83.4273 0.599999 83.944 0.399999 84.5607 0.399999C85.1773 0.399999 85.6857 0.599999 86.0857 0.999999C86.5023 1.38333 86.7107 1.86667 86.7107 2.45C86.7107 3.03333 86.5023 3.525 86.0857 3.925C85.6857 4.30833 85.1773 4.5 84.5607 4.5ZM86.2857 6.15V20H82.7857V6.15H86.2857ZM95.8937 20.225C94.5603 20.225 93.3603 19.9333 92.2937 19.35C91.227 18.75 90.3853 17.9083 89.7687 16.825C89.1687 15.7417 88.8687 14.4917 88.8687 13.075C88.8687 11.6583 89.177 10.4083 89.7937 9.325C90.427 8.24167 91.2853 7.40833 92.3687 6.825C93.452 6.225 94.6603 5.925 95.9937 5.925C97.327 5.925 98.5353 6.225 99.6187 6.825C100.702 7.40833 101.552 8.24167 102.169 9.325C102.802 10.4083 103.119 11.6583 103.119 13.075C103.119 14.4917 102.794 15.7417 102.144 16.825C101.51 17.9083 100.644 18.75 99.5437 19.35C98.4603 19.9333 97.2437 20.225 95.8937 20.225ZM95.8937 17.175C96.527 17.175 97.1187 17.025 97.6687 16.725C98.2353 16.4083 98.6853 15.9417 99.0187 15.325C99.352 14.7083 99.5187 13.9583 99.5187 13.075C99.5187 11.7583 99.1687 10.75 98.4687 10.05C97.7853 9.33333 96.9437 8.975 95.9437 8.975C94.9437 8.975 94.102 9.33333 93.4187 10.05C92.752 10.75 92.4187 11.7583 92.4187 13.075C92.4187 14.3917 92.7437 15.4083 93.3937 16.125C94.0603 16.825 94.8937 17.175 95.8937 17.175Z" fill="white"/>
<a href="https://www.figma.com/design/1zZP8GCwjxl5I0j0lf14FH/Portfolio?node-id=1-2">
<rect fill="black" fill-opacity="0" y="-1.25" width="105.379" height="37.5"/>
</a>
</svg>
